<svg width="97" height="16" viewBox="0 0 97 16" fill="none" xmlns="http://www.w3.org/2000/svg">
<path d="M6.3841 11.5614L3.29248 3.22083H0.0479736L5.19501 15.7742H7.57318L12.6523 3.22083H9.44174L6.3841 11.5614Z" fill="#3700AD"/>
<path d="M23.3831 15.7742L18.7796 3.22083H16.3335L11.6281 15.7742H14.5499L15.4162 13.2431H19.629L20.4613 15.7742H23.3831ZM18.8816 10.78H16.1806L17.5396 6.80507L18.8816 10.78Z" fill="#3700AD"/>
<path d="M28.287 15.995C29.7139 15.995 30.869 15.6213 31.7354 14.8908C32.6187 14.1604 33.0603 13.2091 33.0603 12.071C33.0603 10.6271 32.3129 9.55695 30.8011 8.87748C30.4783 8.72459 30.0027 8.53774 29.3572 8.28293L28.1341 7.79031C27.4547 7.48455 27.1149 7.11084 27.1149 6.68616C27.1149 6.07463 27.6585 5.64996 28.6098 5.64996C29.544 5.64996 30.7161 6.07463 31.4466 6.7711L32.8395 4.6817C31.6674 3.57756 30.2405 3.01699 28.5758 3.01699C27.2678 3.01699 26.1806 3.37371 25.3483 4.08716C24.5159 4.80061 24.1082 5.70092 24.1082 6.78808C24.1082 8.16402 24.7877 9.2342 26.1297 9.96464C26.4864 10.1515 27.03 10.3893 27.7434 10.6611L28.8646 11.0688C29.595 11.3915 29.9517 11.7822 29.9517 12.2409C29.9517 12.9374 29.2553 13.379 28.304 13.379C26.962 13.379 25.8239 12.8184 24.8896 11.7143L23.3608 13.7187C24.5159 15.1966 26.2995 15.995 28.287 15.995Z" fill="#3700AD"/>
<path d="M34.9645 15.7742H37.7843V3.22083H34.9645V15.7742Z" fill="#3700AD"/>
<path d="M49.5098 15.7742V13.0902H43.2586V3.22083H40.4388V15.7742H49.5098Z" fill="#3700AD"/>
<path d="M53.7391 15.978C55.166 15.978 56.3381 15.5533 57.2554 14.704C58.1897 13.8546 58.6484 12.5636 58.6484 10.848V3.22083H55.8455V10.746C55.8455 12.3088 54.9452 13.2771 53.5013 13.2771C52.601 13.2771 51.7856 12.9204 51.0552 12.2239L49.7642 14.4492C50.8174 15.4684 52.1424 15.978 53.7391 15.978Z" fill="#3700AD"/>
<path d="M60.4617 9.52298C60.4617 11.3406 61.0902 12.8694 62.3303 14.1094C63.5703 15.3495 65.1331 15.978 67.0017 15.978C68.8702 15.978 70.433 15.3495 71.6901 14.1094C72.9471 12.8524 73.5756 11.3236 73.5756 9.50599C73.5756 7.68839 72.9471 6.15957 71.6731 4.90254C70.416 3.62852 68.8702 3 67.0187 3C65.1671 3 63.6213 3.62852 62.3473 4.90254C61.0902 6.15957 60.4617 7.70538 60.4617 9.52298ZM67.0187 13.2091C65.9994 13.2091 65.1331 12.8524 64.4366 12.156C63.7402 11.4425 63.3835 10.5592 63.3835 9.50599C63.3835 8.43582 63.7402 7.5525 64.4366 6.83904C65.1331 6.12559 65.9994 5.76887 67.0187 5.76887C68.0209 5.76887 68.8872 6.12559 69.5837 6.83904C70.2801 7.53551 70.6369 8.43582 70.6539 9.50599C70.6708 10.5592 70.3141 11.4425 69.6177 12.156C68.9212 12.8524 68.0549 13.2091 67.0187 13.2091Z" fill="#3700AD"/>
<path d="M83.0663 8.89446C84.1025 8.50376 84.7989 7.46756 84.7989 6.32944C84.7989 5.49708 84.4762 4.76664 83.8477 4.15511C83.2191 3.52659 82.3188 3.22083 81.1637 3.22083H75.5241V15.7742H81.4525C82.6586 15.7742 83.6268 15.4174 84.3573 14.721C85.0877 14.0245 85.4614 13.1412 85.4614 12.105C85.4614 10.5422 84.6291 9.28516 83.0663 8.89446ZM80.6711 5.63297C81.5035 5.63297 82.0131 6.17655 82.0131 6.83904C82.0131 7.51852 81.5035 8.09608 80.5522 8.09608H78.2929V5.63297H80.6711ZM78.2929 13.345V10.3893H80.9089C81.9791 10.3893 82.5566 11.0518 82.5566 11.8672C82.5566 12.6656 81.9621 13.345 80.858 13.345H78.2929Z" fill="#3700AD"/>
<path d="M91.2746 15.995C92.7015 15.995 93.8567 15.6213 94.723 14.8908C95.6063 14.1604 96.048 13.2091 96.048 12.071C96.048 10.6271 95.3005 9.55695 93.7887 8.87748C93.466 8.72459 92.9903 8.53774 92.3448 8.28293L91.1218 7.79031C90.4423 7.48455 90.1026 7.11084 90.1026 6.68616C90.1026 6.07463 90.6461 5.64996 91.5974 5.64996C92.5317 5.64996 93.7038 6.07463 94.4342 6.7711L95.8271 4.6817C94.655 3.57756 93.2281 3.01699 91.5634 3.01699C90.2554 3.01699 89.1683 3.37371 88.3359 4.08716C87.5036 4.80061 87.0959 5.70092 87.0959 6.78808C87.0959 8.16402 87.7753 9.2342 89.1173 9.96464C89.474 10.1515 90.0176 10.3893 90.7311 10.6611L91.8522 11.0688C92.5826 11.3915 92.9394 11.7822 92.9394 12.2409C92.9394 12.9374 92.2429 13.379 91.2916 13.379C89.9497 13.379 88.8115 12.8184 87.8773 11.7143L86.3484 13.7187C87.5036 15.1966 89.2872 15.995 91.2746 15.995Z" fill="#3700AD"/>
</svg>
